/* XPM */
static char *_4438847b0ac448fd24c2e7fc6939652w8dkznFTPGWfHoxN[] = {
/* columns rows colors chars-per-pixel */
"16 16 4 1 ",
"  c None",
". c #5AA05D",
"X c #71B274",
"o c #81D185",
/* pixels */
"                ",
"                ",
"                ",
"                ",
"                ",
"                ",
"                ",
"                ",
"    oo  o       ",
"    X   X       ",
"   XX  X o o    ",
"   X   X X  o   ",
"   X o . X  X   ",
"   X X . .  X   ",
"    . X.X.  .   ",
"    . .... ..   "
};
