/* XPM */
static char *_e8d9be8ca4a4940927f72d1d8188a0ds7FRguCk55s1sfjL[] = {
/* columns rows colors chars-per-pixel */
"16 16 3 1 ",
"  c #5AA05D",
". c #71B274",
"X c #81D185",
/* pixels */
"................",
".......X........",
"..   ..... .....",
".. ....... ....X",
"..........  ....",
"...........X....",
".XX...  ..... ..",
"...... X.....  .",
"............X...",
".. .........X...",
"...X............",
".......... .....",
".........  ....X",
"..  ..X.......X.",
"... ......X...  ",
".............. ."
};
