/* XPM */
static char *_d348bb161bf4be4bca877a0364035f0jfWJzVBLaLtunw8M[] = {
/* columns rows colors chars-per-pixel */
"16 16 10 1 ",
"  c None",
". c #4E5459",
"X c #5AA05D",
"o c #71B274",
"O c #797D83",
"+ c #898D91",
"@ c #8B8D91",
"# c #949B9E",
"$ c #ADAFB5",
"% c #81D185",
/* pixels */
"                ",
"                ",
"       $$$      ",
"      $###      ",
"     $#####     ",
"    $####@@@@   ",
"   $$###@@@$O.  ",
"   $####@@.O@.  ",
"   ####@@.+++.. ",
"  ###@@@$.+++O. ",
"  ##@@@$..@+@O. ",
"  #@@....O++@O. ",
" ##@.....OOO+O. ",
" @@%.....OOOO%  ",
" o..o....oOOo.  ",
"  X.XX..XOOoXX  "
};
