/* XPM */
static char *baa53cdd91644449b4193fee6cca4991dlSGqomVVyDfQnwm[] = {
/* columns rows colors chars-per-pixel */
"16 16 8 1 ",
"  c #5F5767",
". c #71697A",
"X c #77717E",
"o c #5AA05D",
"O c #71B274",
"+ c #807A86",
"@ c #807789",
"# c #81D185",
/* pixels */
".OO#...... .....",
"++ +++++++ +++++",
"++ ++++++@ +++++",
"X+ XX+XX+  X++X+",
"        O ##    ",
"..... ...... ...",
"+++++ +++++  @++",
"XXX+X +XX+X XX+X",
"   #O           ",
"..  #.... .... .",
"+++ +++++ ++++ +",
"X++ X+XX+ +X+X X",
"        OO##    ",
"...... ..#.  ...",
"++++++ ++++ ++++",
"o+oooX o+X+ Xoo+"
};
