/* XPM */
static char *dungeon_wall[] = {
/* columns rows colors chars-per-pixel */
"16 16 8 1 ",
"  c #242629",
". c #26282A",
"X c #282A2D",
"o c #282A2E",
"O c #2C2F33",
"+ c #3A3E44",
"@ c #3F444A",
"# c #474C52",
/* pixels */
"       ..    XXX",
"O@######@@@###@O",
"O@@@@@@@@@@@@@@O",
"O++@@@@@@@@@+++O",
"O++++++++++++++O",
"O++++@++++++@++O",
"O@@@@@@@@++@@@@O",
"OOOOOOOOOOOOoooo",
"OoooooOOOOOOOOOO",
"@####@+OO######@",
"@@@@@++OO@@@@@@@",
"@@@++++OO+@@@@@@",
"+++++++OO+++++++",
"++++@@@OO@++++++",
"++@@@@@OO@@@@@@+",
"XXXXXXXXXX      "
};
