/* XPM */
static char *dungeon_wall_torch[] = {
/* columns rows colors chars-per-pixel */
"16 16 113 2 ",
"   c #2E1F0D",
".  c #37250F",
"X  c #2F2B27",
"o  c #242629",
"O  c #252629",
"+  c #262729",
"@  c #272828",
"#  c #292828",
"$  c #2A2928",
"%  c #2C2A28",
"&  c #282A2D",
"*  c #292A2D",
"=  c #2A2B2D",
"-  c #2B2C2C",
";  c #2B2C2D",
":  c #2E2D2D",
">  c #302C27",
",  c #312D27",
"<  c #342F28",
"1  c #322F2C",
"2  c #332F2C",
"3  c #37312B",
"4  c #3A332A",
"5  c #3E352A",
"6  c #3E372F",
"7  c #3E382F",
"8  c #2C2F33",
"9  c #2E3032",
"0  c #2F3032",
"q  c #2E3033",
"w  c #303132",
"e  c #313132",
"r  c #323232",
"t  c #353331",
"y  c #373430",
"u  c #3A3630",
"i  c #403529",
"p  c #41392E",
"a  c #453B2D",
"s  c #463B2D",
"d  c #4D3F2B",
"f  c #4E3F2B",
"g  c #593A23",
"h  c #48443F",
"j  c #4B453E",
"k  c #4C463E",
"l  c #4D463E",
"z  c #54493B",
"x  c #554A3B",
"c  c #52483C",
"v  c #53493C",
"b  c #5B4C39",
"n  c #5D4D38",
"m  c #5F513E",
"M  c #664229",
"N  c #614F37",
"B  c #624F37",
"V  c #665135",
"C  c #645036",
"Z  c #655036",
"A  c #62523D",
"S  c #3C3F43",
"D  c #3A3E44",
"F  c #3B3E44",
"G  c #3F4042",
"H  c #3E4043",
"J  c #3F444A",
"K  c #434241",
"L  c #404142",
"P  c #414142",
"I  c #454340",
"U  c #444241",
"Y  c #464340",
"T  c #464747",
"R  c #494846",
"E  c #4A4846",
"W  c #4B4946",
"Q  c #4D4A45",
"!  c #4E4A44",
"~  c #4F4A44",
"^  c #404549",
"/  c #414549",
"(  c #424549",
")  c #434549",
"_  c #434648",
"`  c #40444A",
"'  c #454748",
"]  c #4D4E4F",
"[  c #4E4F4F",
"{  c gray31",
"}  c #514B43",
"|  c #534C42",
" . c #524C43",
".. c #544C42",
"X. c #504B44",
"o. c #584E41",
"O. c #5A4F40",
"+. c #504F4E",
"@. c #51504D",
"#. c #52504D",
"$. c #51504E",
"%. c #54514C",
"&. c #55514C",
"*. c #58524A",
"=. c #5A534A",
"-. c #474C52",
";. c #4A4D50",
":. c #4B4E50",
">. c #484C52",
",. c #4C4E50",
"<. c #4D4E50",
"1. c #F75A05",
"2. c #F78E05",
/* pixels */
"O + @ $ % X , < < > X % # - = * ",
"q ( ,.{ #.&.*.=. .X.Q @.[ :./ q ",
"9 ) T W ~ ..o.O.2.o.| ! R ' ) 9 ",
"0 G U Q ..O.2.A 2.m O.| h K H 9 ",
"0 P I k v b B V 2.N b c j U L 0 ",
"w P Y l x A Z 2.1.C n z X.I P 0 ",
"w ' W } O.A . 1.1.. n o.X.E ' 0 ",
"0 r y 7 s f         d a 4 2 : ; ",
"0 : 1 3 5 i g M M g 6 p u t e 9 ",
"/ ;.] $.%.( D g g -.>.#.+.<.;.^ ",
"^ / _ ' ( D D g g J J ^ ' ) / ^ ",
"` ^ / S D D D 8 8 D J J ^ / ^ ` ",
"F F F D D D D 8 8 D D D D F F D ",
"D F D D J J J 8 8 J D D D D D D ",
"D D J J J J J 8 8 J J J J J J D ",
"& & & & & & & & & & o o o o o o "
};
