/* XPM */
static char *dungeon_wall_cracked[] = {
/* columns rows colors chars-per-pixel */
"16 16 12 1 ",
"  c #1D1E20",
". c #1F2022",
"X c #212325",
"o c #242629",
"O c #26282A",
"+ c #282A2D",
"@ c #282A2E",
"# c #2C2F31",
"$ c #2C2F33",
"% c #3A3E44",
"& c #3F444A",
"* c #474C52",
/* pixels */
"oooooooOOoooo+++",
"$&*XX***&&&***&$",
"$&& &&&&&&&&&&&$",
"$%%&&&&&&.&&%%%$",
"$%%%%%%%%.%%%%%$",
"$%%X.&%%%X%%&%%$",
"$&&&X.&&&X.&&&&$",
"$$$$$$$$$$$$@@@@",
"$@@@@@$$$$$$$$$$",
"&****&%$$**##XX&",
"&&&&&%%$$&&&&&X&",
"&&&%%%%$$%&&&&&&",
"%%%.%%%$$%%%###%",
"%#..&&&$$&%%%#%%",
"%.  &&&$$&&&&&&%",
"    .+++++oooooo"
};
