/* XPM */
static char *c8dcfeb2278d464683b1a9fa8270590dIAgibyCqm1qwKgo7[] = {
/* columns rows colors chars-per-pixel */
"16 16 67 1 ",
"  c None",
". c gray32",
"X c gray33",
"o c #565656",
"O c gray34",
"+ c #585858",
"@ c gray35",
"# c #5A5A5A",
"$ c #5B5B5B",
"% c gray36",
"& c #5D5D5D",
"* c gray40",
"= c #686868",
"- c #9F2828",
"; c #A02A2A",
": c #C41818",
"> c #C51B1B",
", c #C61E1E",
"< c #FF1C1C",
"1 c #C62020",
"2 c #FF3939",
"3 c #42B137",
"4 c #45B239",
"5 c #46B33B",
"6 c #48B33D",
"7 c #52E343",
"8 c #6AE75D",
"9 c #6BE75E",
"0 c #B5AC5D",
"q c #B6AD5E",
"w c #B6AD5F",
"e c gray55",
"r c #8D8D8D",
"t c #8E8E8E",
"y c gray56",
"u c #909090",
"i c gray57",
"p c #929292",
"a c #939393",
"s c gray58",
"d c gray59",
"f c #979797",
"g c #9D9D9D",
"h c gray62",
"j c #9F9F9F",
"k c #A0A0A0",
"l c gray63",
"z c #A2A2A2",
"x c gray67",
"c c #ACACAC",
"v c gray68",
"b c #AFAFAF",
"n c gray69",
"m c #B1B1B1",
"M c #B2B2B2",
"N c gray70",
"B c #B4B4B4",
"V c gray71",
"C c #B6B6B6",
"Z c #B7B7B7",
"A c gray75",
"S c #EFE58A",
"D c #F0E58B",
"F c #C0C0C0",
"G c #C1C1C1",
"H c gray76",
"J c #C6C6C6",
/* pixels */
"   <<2SDD987    ",
"  <>,100w6447   ",
"  >gddfzzzzk3   ",
"  ga@%zfz&@zj   ",
"  pF@;ZFZ;&Hg   ",
"  ABcOFZF@vBF   ",
"  aNAcBFBvBFF   ",
"  MaNNJoFBFNB   ",
"  pMMM=XoBMAM   ",
"   rMpM*.pMMM   ",
"  yM&MpMpMpM    ",
"  br&@rMnuvyy   ",
"  r@ $$y@prr    ",
"  e@  @ @ @r    ",
"  o        @    ",
"                "
};
